<?xml version="1.0" standalone="no"?>
<!DOCTYPE svg PUBLIC "-//W3C//DTD SVG 20010904//EN"
 "http://www.w3.org/TR/2001/REC-SVG-20010904/DTD/svg10.dtd">
<svg version="1.0" xmlns="http://www.w3.org/2000/svg"
 width="500.000000pt" height="500.000000pt" viewBox="0 0 500.000000 500.000000"
 preserveAspectRatio="xMidYMid meet">

<g transform="translate(0.000000,500.000000) scale(0.100000,-0.100000)"
fill="#000000" stroke="none">
<path d="M2541 3411 c-36 -38 -83 -149 -107 -253 l-18 -78 -35 6 c-41 6 -100
-24 -108 -56 -3 -11 -25 -29 -49 -41 -24 -11 -49 -29 -54 -39 -5 -10 -43 -39
-85 -65 -85 -53 -105 -82 -105 -152 0 -26 -3 -71 -6 -99 l-6 -51 -48 15 c-45
14 -52 14 -102 -5 l-53 -20 100 -7 c55 -4 116 -9 135 -12 32 -4 33 -3 12 8
-23 11 -24 15 -20 119 2 91 6 112 24 136 17 23 95 79 114 82 3 1 4 -16 2 -37
-6 -64 20 -109 75 -133 26 -11 65 -32 86 -47 30 -20 51 -26 93 -26 42 -1 54
-4 54 -16 0 -24 -21 -40 -52 -40 -15 0 -28 -4 -28 -10 0 -5 14 -10 30 -10 28
0 30 -2 27 -32 -2 -18 -9 -43 -16 -56 -7 -12 -11 -32 -9 -44 2 -16 -8 -28 -44
-49 -47 -28 -48 -28 -58 -8 -6 11 -14 18 -18 15 -4 -2 -70 2 -147 10 -77 7
-233 13 -347 14 l-207 0 -6 -32 c-3 -18 -11 -116 -18 -217 -11 -154 -11 -186
1 -197 23 -23 32 -16 32 27 0 29 4 40 13 36 6 -3 71 -30 142 -60 72 -30 160
-69 198 -87 l67 -33 0 -59 c0 -52 2 -58 20 -58 11 0 47 14 80 30 l60 30 13
-32 c20 -46 39 -61 147 -108 146 -65 247 -100 288 -100 26 0 71 19 154 63 200
106 228 133 228 215 0 76 5 81 70 75 56 -5 62 -3 142 42 122 71 226 142 242
168 20 31 24 119 16 297 l-7 155 -1 -203 c-2 -156 -5 -210 -17 -231 -15 -29
-79 -75 -236 -169 -89 -54 -114 -60 -168 -41 -31 11 -31 11 -32 87 l-2 77 -7
-60 c-4 -33 -8 -102 -9 -154 l-1 -94 -43 -41 c-60 -56 -286 -176 -331 -176
-44 0 -147 37 -292 105 -99 47 -116 59 -128 87 -10 24 -12 91 -11 256 2 264
-5 246 135 334 l95 59 3 -35 c2 -19 10 -40 18 -46 20 -18 17 -47 -6 -53 -15
-4 -20 -14 -20 -36 0 -20 7 -34 20 -41 11 -6 20 -17 20 -24 0 -7 9 -21 20 -31
17 -15 24 -16 45 -7 14 6 25 16 25 22 0 7 8 9 20 5 26 -8 60 11 60 35 0 14 7
20 24 20 13 0 29 7 36 15 7 8 22 15 34 15 28 0 98 73 100 105 1 28 7 30 39 14
21 -10 21 -9 3 5 -10 9 -20 30 -22 48 -6 74 -12 95 -37 132 -15 21 -27 42 -27
46 0 5 -13 13 -30 19 -16 5 -30 15 -30 21 0 14 168 124 245 161 33 16 53 29
45 29 -9 0 -51 -20 -94 -45 -44 -25 -81 -45 -84 -45 -3 0 -32 -19 -65 -41 -59
-41 -62 -41 -123 -35 -39 4 -65 3 -69 -4 -3 -6 -23 -18 -43 -27 -20 -9 -40
-19 -44 -21 -5 -2 -8 8 -8 22 0 30 32 50 97 61 78 13 130 76 120 147 -3 21 -4
38 -2 38 7 0 80 -44 100 -59 18 -15 19 -15 6 1 -7 9 -34 29 -59 44 -26 15 -67
45 -92 68 -25 22 -33 28 -18 11 90 -100 62 -210 -58 -235 -31 -7 -75 -20 -97
-31 -61 -27 -101 -24 -165 14 -32 18 -70 40 -87 48 -76 38 -74 163 4 218 40
29 51 26 51 -13 0 -39 36 -88 81 -111 41 -22 125 -19 164 5 36 22 42 33 60 97
10 37 9 47 -6 72 -23 38 -73 65 -105 57 -31 -8 -31 7 1 119 27 93 46 126 104
187 26 29 32 41 23 50 -8 8 -18 3 -41 -21z m-17 -373 c9 -12 16 -31 16 -42 0
-14 -7 -9 -25 18 -14 20 -25 39 -25 41 0 13 21 2 34 -17z m-56 -437 c10 -6 10
-10 -3 -21 -12 -10 -18 -10 -30 0 -13 11 -13 15 -3 21 7 5 15 9 18 9 3 0 11
-4 18 -9z m-663 -310 c199 -96 205 -101 205 -178 0 -30 -2 -34 -15 -23 -8 6
-20 8 -26 4 -7 -4 -9 -3 -6 2 3 5 -20 20 -51 32 -31 12 -115 48 -187 80 l-130
59 4 49 c3 48 7 64 17 64 2 0 87 -40 189 -89z m210 69 c219 -17 213 -28 -15
-28 -113 0 -216 3 -230 8 -25 7 -24 9 20 23 24 9 87 8 225 -3z m-170 -270
c132 -55 153 -69 160 -108 3 -19 4 -36 1 -39 -6 -7 -346 132 -394 160 -26 15
-32 25 -28 41 3 12 6 29 6 38 0 15 12 12 83 -18 45 -20 123 -53 172 -74z"/>
<path d="M2079 3163 c-3 -18 -3 -31 -1 -28 3 3 12 -1 21 -8 14 -10 14 -10 4 3
-6 8 -13 26 -15 40 -3 23 -4 22 -9 -7z"/>
<path d="M2871 3138 c0 -20 -4 -45 -7 -55 -5 -15 -4 -15 5 -3 9 12 11 13 11 1
0 -8 2 -12 4 -10 2 2 0 27 -4 54 -7 45 -7 46 -9 13z"/>
<path d="M2115 3110 c-3 -6 1 -7 9 -4 18 7 21 14 7 14 -6 0 -13 -4 -16 -10z"/>
<path d="M2057 3095 c12 -8 23 -28 25 -43 3 -27 4 -27 9 5 3 18 2 30 -2 28 -4
-3 -12 2 -19 10 -7 8 -17 15 -23 15 -6 0 -2 -7 10 -15z"/>
<path d="M2890 3056 c0 -2 8 -10 18 -17 15 -13 16 -12 3 4 -13 16 -21 21 -21
13z"/>
<path d="M2958 3013 c6 -2 18 -2 25 0 6 3 1 5 -13 5 -14 0 -19 -2 -12 -5z"/>
<path d="M2885 2959 c-4 -6 -5 -12 -2 -15 2 -3 7 2 10 11 7 17 1 20 -8 4z"/>
<path d="M2867 2904 c3 -27 7 -51 9 -53 8 -9 3 75 -5 88 -5 8 -7 -5 -4 -35z"/>
<path d="M1851 2822 c0 -13 -6 -33 -12 -45 -9 -17 -9 -20 1 -10 9 8 17 6 31
-8 10 -10 27 -19 37 -18 11 0 7 4 -11 11 -15 5 -29 19 -32 31 -2 12 -6 31 -8
42 -4 17 -5 17 -6 -3z"/>
<path d="M3090 2815 c46 -18 64 -17 25 0 -16 8 -37 14 -45 14 -8 0 1 -7 20
-14z"/>
<path d="M3189 2779 c24 -11 46 -18 48 -15 4 4 -73 36 -85 35 -4 0 13 -9 37
-20z"/>
<path d="M2801 2774 c0 -11 3 -14 6 -6 3 7 2 16 -1 19 -3 4 -6 -2 -5 -13z"/>
<path d="M3270 2745 c14 -8 30 -14 35 -14 6 0 -1 6 -15 14 -14 8 -29 14 -35
14 -5 0 1 -6 15 -14z"/>
<path d="M1820 2722 c12 -9 25 -33 29 -52 l8 -35 4 37 c3 20 2 35 -2 33 -3 -3
-14 4 -24 15 -10 11 -22 20 -28 20 -5 0 1 -8 13 -18z"/>
<path d="M2050 2716 c0 -2 28 -20 63 -39 170 -94 240 -129 234 -120 -16 25
-297 176 -297 159z"/>
<path d="M1644 2511 c-18 -11 -34 -24 -38 -29 -3 -6 88 -12 232 -15 142 -4
269 -12 317 -21 43 -8 81 -14 83 -12 1 2 -32 24 -75 48 l-78 45 -205 2 c-188
2 -208 0 -236 -18z"/>
<path d="M2910 2346 c0 -3 9 -10 20 -16 11 -6 20 -8 20 -6 0 3 -9 10 -20 16
-11 6 -20 8 -20 6z"/>
<path d="M2993 2190 c0 -41 2 -58 4 -37 2 20 2 54 0 75 -2 20 -4 3 -4 -38z"/>
<path d="M1680 1915 c0 -7 301 -157 306 -152 4 4 -235 130 -278 146 -16 6 -28
8 -28 6z"/>
<path d="M3137 1860 c-3 -12 -1 -17 5 -14 5 3 18 -2 29 -12 29 -26 28 -13 -2
18 -25 26 -27 27 -32 8z"/>
<path d="M3132 1800 c7 -11 16 -20 20 -20 15 0 8 15 -12 28 -19 12 -20 11 -8
-8z"/>
</g>
</svg>
